<mxfile host="app.diagrams.net" modified="2021-02-15T06:14:30.608Z" agent="5.0 (Windows NT 10.0; Win64; x64) AppleWebKit/537.36 (KHTML, like Gecko) Chrome/88.0.4324.150 Safari/537.36" etag="0Tg0n_o5Q998QtLhnDmj" version="14.3.1" type="github" pages="2">
  <diagram id="jOdRxc3y8hLvE2IeVhYp" name="第 1 页">
    <mxGraphModel dx="1221" dy="775" grid="1" gridSize="10" guides="1" tooltips="1" connect="1" arrows="1" fold="1" page="1" pageScale="1" pageWidth="1169" pageHeight="1654" math="0" shadow="0">
      <root>
        <mxCell id="0" />
        <mxCell id="1" parent="0" />
        <mxCell id="ZspF1tVyXHxtzPNl68Pt-1" value="" style="edgeStyle=orthogonalEdgeStyle;rounded=0;orthogonalLoop=1;jettySize=auto;html=1;" parent="1" source="ZspF1tVyXHxtzPNl68Pt-2" target="ZspF1tVyXHxtzPNl68Pt-3" edge="1">
          <mxGeometry relative="1" as="geometry" />
        </mxCell>
        <mxCell id="ZspF1tVyXHxtzPNl68Pt-2" value="&lt;font&gt;&lt;font style=&quot;font-size: 12px&quot;&gt;主题接口（如天气主题）Subject&lt;br&gt;方法&lt;br&gt;public void notifyObservers(); // 通知观察者&lt;br&gt;&lt;/font&gt;public void registerObserver(Observer o); // 加入观察者&lt;br&gt;public void removeObserver(Observer o); // 移除观察者&lt;br&gt;&lt;/font&gt;" style="whiteSpace=wrap;html=1;fillColor=#f5f5f5;strokeColor=#666666;fontColor=#333333;" parent="1" vertex="1">
          <mxGeometry x="65" y="10" width="315" height="80" as="geometry" />
        </mxCell>
        <mxCell id="ZspF1tVyXHxtzPNl68Pt-3" value="public class WeatherData implements Subject { // 天气主题(被观察者)&lt;br&gt;&lt;div&gt;private ArrayList observers; // 记录观察者&lt;/div&gt;&lt;div&gt;&lt;span&gt; &lt;/span&gt;private float temperature; // 温度&lt;/div&gt;&lt;div&gt;&lt;span&gt; &lt;/span&gt;private float humidity; // 湿度&lt;/div&gt;&lt;div&gt;&lt;div&gt;&lt;br&gt;&lt;/div&gt;&lt;div&gt;&lt;span&gt; &lt;/span&gt;public void notifyObservers() {&lt;/div&gt;&lt;div&gt;&lt;span&gt;  &lt;/span&gt;for (int i = 0; i &amp;lt; observers.size(); i++) {&lt;/div&gt;&lt;div&gt;&lt;span&gt;   &lt;/span&gt;Observer observer = (Observer) observers.get(i);&lt;/div&gt;&lt;div&gt;&lt;span&gt;   &lt;/span&gt;observer.&lt;b&gt;update&lt;/b&gt;(&lt;span&gt;observer&lt;/span&gt;&lt;span&gt;); // 通知所有观察者&lt;/span&gt;&lt;/div&gt;&lt;div&gt;&lt;span&gt;  &lt;/span&gt;}&lt;/div&gt;&lt;div&gt;&lt;span&gt; &lt;/span&gt;}&lt;/div&gt;&lt;/div&gt;}" style="whiteSpace=wrap;html=1;fillColor=#dae8fc;strokeColor=#6c8ebf;" parent="1" vertex="1">
          <mxGeometry x="32.5" y="160" width="380" height="180" as="geometry" />
        </mxCell>
        <mxCell id="ZspF1tVyXHxtzPNl68Pt-4" value="" style="edgeStyle=orthogonalEdgeStyle;rounded=0;orthogonalLoop=1;jettySize=auto;html=1;" parent="1" source="ZspF1tVyXHxtzPNl68Pt-5" target="ZspF1tVyXHxtzPNl68Pt-6" edge="1">
          <mxGeometry relative="1" as="geometry" />
        </mxCell>
        <mxCell id="ZspF1tVyXHxtzPNl68Pt-5" value="&lt;div&gt;观察者接口Observer&lt;/div&gt;&lt;div&gt;&lt;span&gt; &lt;/span&gt;public void &lt;b&gt;update&lt;/b&gt;(Subject s); // 更新方法&lt;/div&gt;" style="whiteSpace=wrap;html=1;fillColor=#f5f5f5;strokeColor=#666666;fontColor=#333333;" parent="1" vertex="1">
          <mxGeometry x="675" y="10" width="240" height="50" as="geometry" />
        </mxCell>
        <mxCell id="ZspF1tVyXHxtzPNl68Pt-6" value="// 观察者1号，观察温度&lt;br&gt;public class TemperatureObserver&amp;nbsp;implements Observer{&lt;br&gt;&lt;div&gt;private float temperature;&lt;br&gt;&lt;/div&gt;&lt;div&gt;&lt;br&gt;&lt;/div&gt;&lt;div&gt;&lt;span&gt; &lt;/span&gt;public void &lt;b&gt;update&lt;/b&gt;(observer&lt;span&gt;) {&lt;/span&gt;&lt;/div&gt;&lt;div&gt;&lt;/div&gt;this.temperature = observer.temperature;&lt;br&gt;&lt;div&gt;&lt;span&gt; &lt;/span&gt;}&lt;/div&gt;}" style="whiteSpace=wrap;html=1;strokeColor=#6c8ebf;fillColor=#dae8fc;" parent="1" vertex="1">
          <mxGeometry x="460" y="162.5" width="310" height="145" as="geometry" />
        </mxCell>
        <mxCell id="ZspF1tVyXHxtzPNl68Pt-7" value="" style="edgeStyle=orthogonalEdgeStyle;rounded=0;orthogonalLoop=1;jettySize=auto;html=1;" parent="1" target="ZspF1tVyXHxtzPNl68Pt-8" edge="1">
          <mxGeometry relative="1" as="geometry">
            <mxPoint x="795" y="60" as="sourcePoint" />
            <Array as="points">
              <mxPoint x="795" y="105" />
              <mxPoint x="990" y="105" />
            </Array>
          </mxGeometry>
        </mxCell>
        <mxCell id="ZspF1tVyXHxtzPNl68Pt-8" value="// 观察者2号，观察温度&lt;br&gt;public class TemperatureObserver&amp;nbsp;implements Observer{&lt;br&gt;&lt;div&gt;private float humidity;&lt;br&gt;&lt;/div&gt;&lt;div&gt;&lt;br&gt;&lt;/div&gt;&lt;div&gt;&lt;span&gt; &lt;/span&gt;public void &lt;b&gt;update&lt;/b&gt;(observer&lt;span&gt;) {&lt;/span&gt;&lt;/div&gt;&lt;div&gt;&lt;/div&gt;this.humidity= observer.humidity;&lt;br&gt;&lt;div&gt;&lt;span&gt; &lt;/span&gt;}&lt;/div&gt;}" style="whiteSpace=wrap;html=1;strokeColor=#6c8ebf;fillColor=#dae8fc;" parent="1" vertex="1">
          <mxGeometry x="835" y="155" width="310" height="145" as="geometry" />
        </mxCell>
        <mxCell id="ZspF1tVyXHxtzPNl68Pt-11" value="&lt;span style=&quot;background-color: rgb(230 , 208 , 222)&quot;&gt;观察者模式&lt;/span&gt;" style="text;html=1;align=center;verticalAlign=middle;resizable=0;points=[];autosize=1;rotation=0;" parent="1" vertex="1">
          <mxGeometry x="440" y="20" width="80" height="20" as="geometry" />
        </mxCell>
        <mxCell id="ZspF1tVyXHxtzPNl68Pt-14" value="" style="edgeStyle=orthogonalEdgeStyle;rounded=0;orthogonalLoop=1;jettySize=auto;html=1;" parent="1" source="ZspF1tVyXHxtzPNl68Pt-12" target="ZspF1tVyXHxtzPNl68Pt-13" edge="1">
          <mxGeometry relative="1" as="geometry" />
        </mxCell>
        <mxCell id="ZspF1tVyXHxtzPNl68Pt-15" value="继承" style="edgeLabel;html=1;align=center;verticalAlign=middle;resizable=0;points=[];" parent="ZspF1tVyXHxtzPNl68Pt-14" vertex="1" connectable="0">
          <mxGeometry x="0.0154" y="4" relative="1" as="geometry">
            <mxPoint y="4" as="offset" />
          </mxGeometry>
        </mxCell>
        <mxCell id="ZspF1tVyXHxtzPNl68Pt-17" value="" style="edgeStyle=orthogonalEdgeStyle;rounded=0;orthogonalLoop=1;jettySize=auto;html=1;" parent="1" source="ZspF1tVyXHxtzPNl68Pt-12" target="ZspF1tVyXHxtzPNl68Pt-16" edge="1">
          <mxGeometry relative="1" as="geometry" />
        </mxCell>
        <mxCell id="ZspF1tVyXHxtzPNl68Pt-12" value="&lt;div&gt;// 饮料抽象类（被装饰者类）&lt;/div&gt;&lt;div&gt;public abstract class Beverage {&lt;/div&gt;&lt;div&gt;&lt;span&gt; &lt;/span&gt;String description = &quot;Unknown Beverage&quot;; // 饮料名称&lt;/div&gt;&lt;div&gt;&lt;br&gt;&lt;/div&gt;&lt;div&gt;&lt;span&gt; &lt;/span&gt;public abstract double cost(); // 返回饮料价格&lt;/div&gt;&lt;div&gt;}&lt;/div&gt;" style="whiteSpace=wrap;html=1;fillColor=#d5e8d4;strokeColor=#82b366;" parent="1" vertex="1">
          <mxGeometry x="60" y="540" width="310" height="90" as="geometry" />
        </mxCell>
        <mxCell id="ZspF1tVyXHxtzPNl68Pt-24" value="" style="edgeStyle=orthogonalEdgeStyle;rounded=0;orthogonalLoop=1;jettySize=auto;html=1;" parent="1" source="ZspF1tVyXHxtzPNl68Pt-13" target="ZspF1tVyXHxtzPNl68Pt-23" edge="1">
          <mxGeometry relative="1" as="geometry" />
        </mxCell>
        <mxCell id="ZspF1tVyXHxtzPNl68Pt-13" value="// 配料抽象类&lt;br&gt;abstract class Condiment extends Beverage {&lt;div&gt;&lt;span&gt;public abstract String getDescription(); // 返回配料名称&lt;/span&gt;&lt;br&gt;&lt;/div&gt;&lt;div&gt;}&lt;/div&gt;" style="whiteSpace=wrap;html=1;strokeColor=#82b366;fillColor=#d5e8d4;" parent="1" vertex="1">
          <mxGeometry x="710" y="640" width="295" height="70" as="geometry" />
        </mxCell>
        <mxCell id="ZspF1tVyXHxtzPNl68Pt-16" value="&lt;div&gt;// 具体的饮料1&lt;/div&gt;&lt;div&gt;public class Espresso extends Beverage {&lt;/div&gt;&lt;div&gt;&lt;br&gt;&lt;/div&gt;&lt;div&gt;&lt;span&gt; &lt;/span&gt;public Espresso() {&lt;/div&gt;&lt;div&gt;&lt;span&gt;  &lt;/span&gt;description = &quot;Espresso--浓缩咖啡&quot;;&lt;/div&gt;&lt;div&gt;&lt;span&gt; &lt;/span&gt;}&lt;/div&gt;&lt;div&gt;&lt;br&gt;&lt;/div&gt;&lt;div&gt;&lt;span&gt; &lt;/span&gt;public double cost() {&lt;/div&gt;&lt;div&gt;&lt;span&gt;  &lt;/span&gt;return 1.99;&lt;/div&gt;&lt;div&gt;&lt;span&gt; &lt;/span&gt;}&lt;/div&gt;&lt;div&gt;}&lt;/div&gt;" style="whiteSpace=wrap;html=1;strokeColor=#6c8ebf;fillColor=#dae8fc;" parent="1" vertex="1">
          <mxGeometry y="750" width="230" height="170" as="geometry" />
        </mxCell>
        <mxCell id="ZspF1tVyXHxtzPNl68Pt-21" value="" style="edgeStyle=orthogonalEdgeStyle;rounded=0;orthogonalLoop=1;jettySize=auto;html=1;" parent="1" target="ZspF1tVyXHxtzPNl68Pt-22" edge="1">
          <mxGeometry relative="1" as="geometry">
            <mxPoint x="200" y="690" as="sourcePoint" />
            <Array as="points">
              <mxPoint x="385" y="690" />
            </Array>
          </mxGeometry>
        </mxCell>
        <mxCell id="ZspF1tVyXHxtzPNl68Pt-22" value="&lt;div&gt;// 具体的饮料2&lt;/div&gt;&lt;div&gt;class HouseBlend extends Beverage {&lt;/div&gt;&lt;div&gt;&lt;br&gt;&lt;/div&gt;&lt;div&gt;&lt;span&gt; &lt;/span&gt;public HouseBlend() {&lt;/div&gt;&lt;div&gt;&lt;span&gt;  &lt;/span&gt;description = &quot;HouseBlend--黑咖啡&quot;;&lt;/div&gt;&lt;div&gt;&lt;span&gt; &lt;/span&gt;}&lt;/div&gt;&lt;div&gt;&lt;br&gt;&lt;/div&gt;&lt;div&gt;&lt;span&gt; &lt;/span&gt;public double cost() {&lt;/div&gt;&lt;div&gt;&lt;span&gt;  &lt;/span&gt;return .98;&lt;/div&gt;&lt;div&gt;&lt;span&gt; &lt;/span&gt;}&lt;/div&gt;&lt;div&gt;}&lt;/div&gt;" style="whiteSpace=wrap;html=1;strokeColor=#6c8ebf;fillColor=#dae8fc;" parent="1" vertex="1">
          <mxGeometry x="270" y="750" width="230" height="170" as="geometry" />
        </mxCell>
        <mxCell id="ZspF1tVyXHxtzPNl68Pt-23" value="&lt;div&gt;// 配料实例（摩卡）&lt;/div&gt;&lt;div&gt;public class Mocha extends Condiment {&lt;/div&gt;&lt;div&gt;&lt;span&gt; &lt;/span&gt;Beverage beverage; // 被装饰者&lt;/div&gt;&lt;div&gt;&lt;br&gt;&lt;/div&gt;&lt;div&gt;&lt;span&gt; &lt;/span&gt;public Mocha(Beverage beverage) {&lt;/div&gt;&lt;div&gt;&lt;span&gt;  &lt;/span&gt;this.beverage = beverage;&lt;/div&gt;&lt;div&gt;&lt;span&gt; &lt;/span&gt;}&lt;/div&gt;&lt;div&gt;&lt;br&gt;&lt;/div&gt;&lt;div&gt;&lt;span&gt; &lt;/span&gt;@Override&lt;/div&gt;&lt;div&gt;&lt;span&gt; &lt;/span&gt;public String getDescription() {&lt;/div&gt;&lt;div&gt;&lt;span&gt;  &lt;/span&gt;return beverage.getDescription() + &quot;+ Mocha（摩卡）&quot;;&lt;/div&gt;&lt;div&gt;&lt;span&gt; &lt;/span&gt;}&lt;/div&gt;&lt;div&gt;&lt;br&gt;&lt;/div&gt;&lt;div&gt;&lt;span&gt; &lt;/span&gt;@Override&lt;/div&gt;&lt;div&gt;&lt;span&gt; &lt;/span&gt;public double cost() {&lt;/div&gt;&lt;div&gt;&lt;span&gt;  &lt;/span&gt;return .20 + beverage.cost(); // 被装饰者价格+配料价格&lt;/div&gt;&lt;div&gt;&lt;span&gt; &lt;/span&gt;}&lt;/div&gt;&lt;div&gt;}&lt;/div&gt;&lt;div&gt;&lt;br&gt;&lt;/div&gt;" style="whiteSpace=wrap;html=1;strokeColor=#6c8ebf;fillColor=#dae8fc;" parent="1" vertex="1">
          <mxGeometry x="710" y="770" width="296.25" height="280" as="geometry" />
        </mxCell>
        <mxCell id="ZspF1tVyXHxtzPNl68Pt-25" value="// 一杯加摩卡的黑咖啡&lt;br&gt;Beverage mochaHouseBlend = new Mocha(new HouseBlend());&lt;br&gt;" style="whiteSpace=wrap;html=1;" parent="1" vertex="1">
          <mxGeometry x="290" y="990" width="380" height="60" as="geometry" />
        </mxCell>
        <mxCell id="ZspF1tVyXHxtzPNl68Pt-26" value="&lt;span style=&quot;background-color: rgb(230 , 208 , 222)&quot;&gt;装饰者模式&lt;/span&gt;" style="text;html=1;align=center;verticalAlign=middle;resizable=0;points=[];autosize=1;" parent="1" vertex="1">
          <mxGeometry x="450" y="640" width="80" height="20" as="geometry" />
        </mxCell>
        <mxCell id="_SmU_SJM2l_Ir7GUlWSc-1" value="&lt;pre style=&quot;background-color: #ffffff ; color: #080808 ; font-family: &amp;#34;宋体&amp;#34; , monospace ; font-size: 14.3pt&quot;&gt;&lt;span style=&quot;color: #0033b3&quot;&gt;public class &lt;/span&gt;&lt;span style=&quot;color: #000000&quot;&gt;SimplePizzaFactory &lt;/span&gt;{&lt;br&gt;   &lt;span style=&quot;color: #0033b3&quot;&gt;public static &lt;/span&gt;&lt;span style=&quot;color: #000000&quot;&gt;Pizza &lt;/span&gt;&lt;span style=&quot;color: #00627a&quot;&gt;createPizza&lt;/span&gt;(&lt;span style=&quot;color: #000000&quot;&gt;String &lt;/span&gt;type) {&lt;br&gt;      &lt;span style=&quot;color: #000000&quot;&gt;Pizza &lt;/span&gt;pizza = &lt;span style=&quot;color: #1750eb&quot;&gt;null&lt;/span&gt;;&lt;br&gt;&lt;br&gt;      &lt;span style=&quot;color: #0033b3&quot;&gt;if &lt;/span&gt;(&lt;span style=&quot;color: #067d17&quot;&gt;&quot;sweetPizza&quot;&lt;/span&gt;.equals(type)) {&lt;br&gt;         pizza = &lt;span style=&quot;color: #0033b3&quot;&gt;new &lt;/span&gt;SweetPizza();&lt;br&gt;         &lt;span style=&quot;color: #0033b3&quot;&gt;return &lt;/span&gt;pizza;&lt;br&gt;      }&lt;br&gt;&lt;br&gt;      &lt;span style=&quot;color: #0033b3&quot;&gt;return &lt;/span&gt;pizza;&lt;br&gt;   }&lt;br&gt;}&lt;br&gt;&lt;br&gt;&lt;span style=&quot;color: #0033b3&quot;&gt;class &lt;/span&gt;&lt;span style=&quot;color: #000000&quot;&gt;SimplePizzaFactoryTest &lt;/span&gt;{&lt;br&gt;   &lt;span style=&quot;color: #0033b3&quot;&gt;public static void &lt;/span&gt;&lt;span style=&quot;color: #00627a&quot;&gt;main&lt;/span&gt;(&lt;span style=&quot;color: #000000&quot;&gt;String&lt;/span&gt;[] args) {&lt;br&gt;      &lt;u&gt;&lt;span style=&quot;color: #000000&quot;&gt;Pizza sweetPizza &lt;/span&gt;= &lt;span style=&quot;color: #000000&quot;&gt;SimplePizzaFactory&lt;/span&gt;.&lt;span style=&quot;font-style: italic&quot;&gt;createPizza&lt;/span&gt;(&lt;span style=&quot;color: #067d17&quot;&gt;&quot;sweetPizza&quot;&lt;/span&gt;);&lt;/u&gt;&lt;br&gt;      &lt;span style=&quot;color: #000000&quot;&gt;System&lt;/span&gt;.&lt;span style=&quot;color: #871094 ; font-style: italic&quot;&gt;out&lt;/span&gt;.println(&lt;span style=&quot;color: #000000&quot;&gt;sweetPizza&lt;/span&gt;);&lt;br&gt;   }&lt;br&gt;}&lt;br&gt;&lt;/pre&gt;" style="whiteSpace=wrap;html=1;" parent="1" vertex="1">
          <mxGeometry x="10" y="1240" width="680" height="440" as="geometry" />
        </mxCell>
        <mxCell id="_SmU_SJM2l_Ir7GUlWSc-2" value="&lt;span style=&quot;background-color: rgb(230 , 208 , 222)&quot;&gt;简单工厂&lt;/span&gt;" style="text;html=1;align=center;verticalAlign=middle;resizable=0;points=[];autosize=1;" parent="1" vertex="1">
          <mxGeometry x="10" y="1240" width="60" height="20" as="geometry" />
        </mxCell>
        <mxCell id="tWBUa59P9CpGWSd2VnRZ-10" value="" style="edgeStyle=orthogonalEdgeStyle;rounded=0;orthogonalLoop=1;jettySize=auto;html=1;fontColor=#000000;" edge="1" parent="1" source="_SmU_SJM2l_Ir7GUlWSc-3" target="tWBUa59P9CpGWSd2VnRZ-9">
          <mxGeometry relative="1" as="geometry" />
        </mxCell>
        <mxCell id="_SmU_SJM2l_Ir7GUlWSc-3" value="&lt;pre style=&quot;font-size: 14.3pt&quot;&gt;&lt;span&gt;// pizza抽象类&lt;/span&gt;&lt;/pre&gt;&lt;pre style=&quot;color: rgb(8 , 8 , 8) ; font-family: , monospace ; font-size: 14.3pt&quot;&gt;&lt;span&gt;&lt;span style=&quot;color: rgb(0 , 51 , 179)&quot;&gt;public abstract class &lt;/span&gt;&lt;span style=&quot;color: rgb(0 , 0 , 0)&quot;&gt;Pizza &lt;/span&gt;{&lt;br&gt;&lt;span style=&quot;color: rgb(0 , 0 , 0)&quot;&gt;String &lt;/span&gt;&lt;span style=&quot;color: rgb(135 , 16 , 148)&quot;&gt;name&lt;/span&gt;;&lt;br&gt;&lt;span style=&quot;color: rgb(0 , 0 , 0)&quot;&gt;Sauce &lt;/span&gt;&lt;span style=&quot;color: rgb(135 , 16 , 148)&quot;&gt;sauce&lt;/span&gt;; // 酱料&lt;br&gt;&lt;span style=&quot;color: rgb(0 , 0 , 0)&quot;&gt;Vegetables &lt;/span&gt;&lt;span style=&quot;color: rgb(135 , 16 , 148)&quot;&gt;vegetables&lt;/span&gt;; // 蔬菜&lt;br&gt;&lt;span style=&quot;color: rgb(140 , 140 , 140) ; font-style: italic&quot;&gt;// 准备&lt;/span&gt;&lt;span style=&quot;color: rgb(140 , 140 , 140) ; font-style: italic&quot;&gt;原料&lt;/span&gt;&lt;span style=&quot;color: rgb(140 , 140 , 140) ; font-style: italic&quot;&gt;&lt;br&gt;&lt;/span&gt;&lt;span style=&quot;color: rgb(0 , 51 , 179)&quot;&gt;abstract void &lt;/span&gt;&lt;span style=&quot;color: rgb(0 , 98 , 122)&quot;&gt;prepare&lt;/span&gt;();&lt;br&gt;&lt;br&gt;&lt;span style=&quot;color: rgb(0 , 51 , 179)&quot;&gt;void &lt;/span&gt;&lt;span style=&quot;color: rgb(0 , 98 , 122)&quot;&gt;cut&lt;/span&gt;() {&lt;br&gt;&lt;span style=&quot;color: rgb(0 , 0 , 0)&quot;&gt;System&lt;/span&gt;.&lt;span style=&quot;color: rgb(135 , 16 , 148) ; font-style: italic&quot;&gt;out&lt;/span&gt;.println(&lt;span style=&quot;color: rgb(6 , 125 , 23)&quot;&gt;&quot;切片&quot;&lt;/span&gt;);&lt;br&gt;}&lt;br&gt;&lt;span style=&quot;color: rgb(0 , 51 , 179)&quot;&gt;void &lt;/span&gt;&lt;span style=&quot;color: rgb(0 , 98 , 122)&quot;&gt;box&lt;/span&gt;() {&lt;br&gt;&lt;span style=&quot;color: rgb(0 , 0 , 0)&quot;&gt;System&lt;/span&gt;.&lt;span style=&quot;color: rgb(135 , 16 , 148) ; font-style: italic&quot;&gt;out&lt;/span&gt;.println(&lt;span style=&quot;color: rgb(6 , 125 , 23)&quot;&gt;&quot;装盒&quot;&lt;/span&gt;);&lt;br&gt;}&lt;br&gt;}&lt;/span&gt;&lt;/pre&gt;" style="whiteSpace=wrap;html=1;fontColor=#333333;fillColor=#f5f5f5;strokeColor=#666666;labelBackgroundColor=none;" parent="1" vertex="1">
          <mxGeometry x="290" y="1800" width="330" height="360" as="geometry" />
        </mxCell>
        <mxCell id="tWBUa59P9CpGWSd2VnRZ-8" value="" style="edgeStyle=orthogonalEdgeStyle;rounded=0;orthogonalLoop=1;jettySize=auto;html=1;fontColor=#000000;" edge="1" parent="1" source="tWBUa59P9CpGWSd2VnRZ-3" target="tWBUa59P9CpGWSd2VnRZ-7">
          <mxGeometry relative="1" as="geometry" />
        </mxCell>
        <mxCell id="tWBUa59P9CpGWSd2VnRZ-3" value="&lt;pre style=&quot;color: rgb(8 , 8 , 8) ; font-family: , monospace ; font-size: 14.3pt&quot;&gt;&lt;span style=&quot;color: rgb(0 , 51 , 179) ; line-height: 100%&quot;&gt;public abstract class &lt;/span&gt;&lt;span style=&quot;color: rgb(0 , 0 , 0)&quot;&gt;PizzaStore &lt;/span&gt;{&lt;br&gt;&lt;span style=&quot;color: rgb(140 , 140 , 140) ; font-style: italic&quot;&gt;// 下订单，创建pizza&lt;/span&gt;&lt;span style=&quot;color: rgb(140 , 140 , 140) ; font-style: italic&quot;&gt;&lt;br&gt;&lt;/span&gt;&lt;span style=&quot;color: rgb(140 , 140 , 140) ; font-style: italic&quot;&gt;    &lt;/span&gt;&lt;span style=&quot;color: rgb(0 , 51 , 179)&quot;&gt;public &lt;/span&gt;&lt;span style=&quot;color: rgb(0 , 0 , 0)&quot;&gt;Pizza &lt;/span&gt;&lt;span style=&quot;color: rgb(0 , 98 , 122)&quot;&gt;orderPizza&lt;/span&gt;(&lt;span style=&quot;color: rgb(0 , 0 , 0)&quot;&gt;String &lt;/span&gt;type) {&lt;br&gt;        &lt;span style=&quot;color: rgb(0 , 0 , 0)&quot;&gt;Pizza pizza&lt;/span&gt;;&lt;br&gt;        &lt;span style=&quot;color: rgb(140 , 140 , 140) ; font-style: italic&quot;&gt;// 创建披萨 pizza&lt;br&gt;&lt;/span&gt;&lt;span style=&quot;color: rgb(140 , 140 , 140) ; font-style: italic&quot;&gt;        &lt;/span&gt;&lt;span style=&quot;color: rgb(0 , 0 , 0)&quot;&gt;pizza &lt;/span&gt;= &lt;b&gt;createPizza(type);&lt;/b&gt;&lt;br&gt;        &lt;span style=&quot;color: rgb(0 , 0 , 0)&quot;&gt;pizza&lt;/span&gt;.prepare(); &lt;span style=&quot;color: rgb(140 , 140 , 140) ; font-style: italic&quot;&gt;// 准备&lt;br&gt;&lt;/span&gt;&lt;span style=&quot;color: rgb(140 , 140 , 140) ; font-style: italic&quot;&gt;        &lt;/span&gt;&lt;span style=&quot;color: rgb(0 , 0 , 0)&quot;&gt;pizza&lt;/span&gt;.cut(); &lt;span style=&quot;color: rgb(140 , 140 , 140) ; font-style: italic&quot;&gt;// 切片&lt;br&gt;&lt;/span&gt;&lt;span style=&quot;color: rgb(140 , 140 , 140) ; font-style: italic&quot;&gt;        &lt;/span&gt;&lt;span style=&quot;color: rgb(0 , 0 , 0)&quot;&gt;pizza&lt;/span&gt;.box(); &lt;span style=&quot;color: rgb(140 , 140 , 140) ; font-style: italic&quot;&gt;// 装盒&lt;br&gt;&lt;/span&gt;&lt;span style=&quot;color: rgb(140 , 140 , 140) ; font-style: italic&quot;&gt;        &lt;/span&gt;&lt;span style=&quot;color: rgb(0 , 51 , 179)&quot;&gt;return &lt;/span&gt;&lt;span style=&quot;color: rgb(0 , 0 , 0)&quot;&gt;pizza&lt;/span&gt;;&lt;br&gt;    }&lt;/pre&gt;&lt;pre&gt;&lt;font color=&quot;#080808&quot;&gt;&lt;span style=&quot;font-size: 14.3pt&quot;&gt;// &lt;/span&gt;&lt;span style=&quot;font-size: 19.0667px&quot;&gt;工厂方法将超类中的代码，例如orderPizza()和实际创建具&lt;br/&gt;体产品的代码分隔开来。&lt;/span&gt;&lt;/font&gt;&lt;/pre&gt;&lt;pre&gt;&lt;span style=&quot;font-size: 14.3pt ; color: rgb(0 , 51 , 179)&quot;&gt;abstract &lt;/span&gt;&lt;span style=&quot;font-size: 14.3pt ; color: rgb(0 , 0 , 0)&quot;&gt;Pizza &lt;/span&gt;&lt;b style=&quot;font-size: 14.3pt ; color: rgb(8 , 8 , 8)&quot;&gt;&lt;span style=&quot;color: rgb(0 , 98 , 122)&quot;&gt;createPizza&lt;/span&gt;(&lt;span style=&quot;color: rgb(0 , 0 , 0)&quot;&gt;String &lt;/span&gt;type);&lt;/b&gt;&lt;font color=&quot;#080808&quot; style=&quot;font-size: 14.3pt&quot;&gt;&lt;br&gt;}&lt;/font&gt;&lt;/pre&gt;" style="whiteSpace=wrap;html=1;labelBackgroundColor=none;strokeColor=#666666;fillColor=#f5f5f5;fontColor=#333333;" vertex="1" parent="1">
          <mxGeometry x="800" y="1800" width="570" height="370" as="geometry" />
        </mxCell>
        <mxCell id="tWBUa59P9CpGWSd2VnRZ-7" value="&lt;pre style=&quot;font-size: 14.3pt&quot;&gt;&lt;pre style=&quot;color: rgb(0 , 0 , 0) ; font-size: 14.3pt&quot;&gt;// pizza商店的一个实例&lt;/pre&gt;&lt;pre style=&quot;font-size: 14.3pt&quot;&gt;&lt;span style=&quot;color: rgb(0 , 51 , 179)&quot;&gt;class &lt;/span&gt;&lt;span style=&quot;color: rgb(0 , 0 , 0)&quot;&gt;HeBiePizzaStore &lt;/span&gt;&lt;span style=&quot;color: rgb(0 , 51 , 179)&quot;&gt;extends &lt;/span&gt;&lt;span style=&quot;color: rgb(0 , 0 , 0)&quot;&gt;PizzaStore &lt;/span&gt;&lt;font color=&quot;#080808&quot;&gt;{&lt;br&gt;    &lt;/font&gt;&lt;span style=&quot;color: rgb(158 , 136 , 13)&quot;&gt;@Override&lt;br&gt;&lt;/span&gt;&lt;span style=&quot;color: rgb(158 , 136 , 13)&quot;&gt;    &lt;/span&gt;&lt;span style=&quot;color: rgb(0 , 0 , 0)&quot;&gt;Pizza &lt;/span&gt;&lt;b&gt;&lt;span style=&quot;color: rgb(0 , 98 , 122)&quot;&gt;createPizza&lt;/span&gt;&lt;font color=&quot;#080808&quot;&gt;(&lt;/font&gt;&lt;span style=&quot;color: rgb(0 , 0 , 0)&quot;&gt;String &lt;/span&gt;&lt;/b&gt;&lt;font color=&quot;#080808&quot;&gt;&lt;b&gt;item)&lt;/b&gt; {&lt;br&gt;        &lt;/font&gt;&lt;span style=&quot;color: rgb(0 , 0 , 0)&quot;&gt;Pizza &lt;/span&gt;&lt;font color=&quot;#080808&quot;&gt;pizza = &lt;/font&gt;&lt;span style=&quot;color: rgb(23 , 80 , 235)&quot;&gt;null&lt;/span&gt;&lt;font color=&quot;#080808&quot;&gt;;&lt;/font&gt;&lt;span style=&quot;color: rgb(140 , 140 , 140) ; font-style: italic&quot;&gt;&lt;br&gt;&lt;/span&gt;&lt;span style=&quot;color: rgb(140 , 140 , 140) ; font-style: italic&quot;&gt;        &lt;/span&gt;&lt;span style=&quot;color: rgb(0 , 51 , 179)&quot;&gt;if &lt;/span&gt;&lt;font color=&quot;#080808&quot;&gt;(&lt;/font&gt;&lt;span style=&quot;color: rgb(6 , 125 , 23)&quot;&gt;&quot;bitterPizza&quot;&lt;/span&gt;&lt;font color=&quot;#080808&quot;&gt;.equals(item)) {&lt;br&gt;            &lt;/font&gt;&lt;span style=&quot;color: rgb(0 , 51 , 179)&quot;&gt;return &lt;/span&gt;&lt;span style=&quot;color: rgb(23 , 80 , 235)&quot;&gt;new &lt;/span&gt;BitterPizza()&lt;font color=&quot;#080808&quot;&gt;;&lt;br&gt;        } &lt;/font&gt;&lt;span style=&quot;color: rgb(0 , 51 , 179)&quot;&gt;else if &lt;/span&gt;&lt;font color=&quot;#080808&quot;&gt;(&lt;/font&gt;&lt;span style=&quot;color: rgb(6 , 125 , 23)&quot;&gt;&quot;sweetPizza&quot;&lt;/span&gt;&lt;font color=&quot;#080808&quot;&gt;.equals(item)) {&lt;/font&gt;&lt;span style=&quot;color: rgb(140 , 140 , 140) ; font-style: italic&quot;&gt;&lt;br&gt;&lt;/span&gt;&lt;span style=&quot;color: rgb(140 , 140 , 140) ; font-style: italic&quot;&gt;            &lt;/span&gt;&lt;font color=&quot;#080808&quot;&gt;pizza = &lt;/font&gt;&lt;span style=&quot;color: rgb(0 , 51 , 179)&quot;&gt;new &lt;/span&gt;&lt;font color=&quot;#080808&quot;&gt;SweetPizza();&lt;br&gt;            pizza.&lt;/font&gt;&lt;span style=&quot;color: rgb(135 , 16 , 148)&quot;&gt;name  &lt;/span&gt;&lt;font color=&quot;#080808&quot;&gt;= &lt;/font&gt;&lt;span style=&quot;color: rgb(6 , 125 , 23)&quot;&gt;&quot;河北甜披萨&quot;&lt;/span&gt;&lt;font color=&quot;#080808&quot;&gt;;&lt;br&gt;            &lt;/font&gt;&lt;span style=&quot;color: rgb(0 , 51 , 179)&quot;&gt;return &lt;/span&gt;&lt;font color=&quot;#080808&quot;&gt;pizza;&lt;br&gt;        }&lt;br&gt;        &lt;/font&gt;&lt;span style=&quot;color: rgb(0 , 51 , 179)&quot;&gt;return &lt;/span&gt;&lt;font color=&quot;#080808&quot;&gt;pizza;&lt;br&gt;    }&lt;br&gt;}&lt;/font&gt;&lt;/pre&gt;&lt;/pre&gt;" style="whiteSpace=wrap;html=1;labelBackgroundColor=none;strokeColor=#6c8ebf;fillColor=#dae8fc;" vertex="1" parent="1">
          <mxGeometry x="847.5" y="2250" width="475" height="370" as="geometry" />
        </mxCell>
        <mxCell id="tWBUa59P9CpGWSd2VnRZ-9" value="&lt;pre style=&quot;color: rgb(0 , 0 , 0) ; font-size: 14.3pt&quot;&gt;&lt;pre style=&quot;color: rgb(8 , 8 , 8) ; font-family: , monospace ; font-size: 14.3pt&quot;&gt;&lt;span style=&quot;color: rgb(0 , 51 , 179)&quot;&gt;class &lt;/span&gt;&lt;span style=&quot;color: rgb(0 , 0 , 0)&quot;&gt;SweetPizza &lt;/span&gt;&lt;span style=&quot;color: rgb(0 , 51 , 179)&quot;&gt;extends &lt;/span&gt;&lt;span style=&quot;color: rgb(0 , 0 , 0)&quot;&gt;Pizza &lt;/span&gt;{&lt;br&gt;   &lt;span style=&quot;color: rgb(0 , 51 , 179)&quot;&gt;public &lt;/span&gt;&lt;span style=&quot;color: rgb(0 , 98 , 122)&quot;&gt;SweetPizza&lt;/span&gt;() {&lt;br&gt;   }&lt;br&gt;}&lt;/pre&gt;&lt;/pre&gt;" style="whiteSpace=wrap;html=1;strokeColor=#6c8ebf;fillColor=#dae8fc;" vertex="1" parent="1">
          <mxGeometry x="70" y="2260" width="322.5" height="100" as="geometry" />
        </mxCell>
        <mxCell id="tWBUa59P9CpGWSd2VnRZ-11" value="" style="edgeStyle=orthogonalEdgeStyle;rounded=0;orthogonalLoop=1;jettySize=auto;html=1;fontColor=#000000;exitX=0.5;exitY=1;exitDx=0;exitDy=0;" edge="1" target="tWBUa59P9CpGWSd2VnRZ-12" parent="1" source="_SmU_SJM2l_Ir7GUlWSc-3">
          <mxGeometry relative="1" as="geometry">
            <mxPoint x="905" y="2160" as="sourcePoint" />
          </mxGeometry>
        </mxCell>
        <mxCell id="tWBUa59P9CpGWSd2VnRZ-12" value="&lt;pre style=&quot;color: rgb(0 , 0 , 0) ; font-size: 14.3pt&quot;&gt;&lt;pre style=&quot;color: rgb(8 , 8 , 8) ; font-family: , monospace ; font-size: 14.3pt&quot;&gt;&lt;span style=&quot;color: rgb(0 , 51 , 179)&quot;&gt;class &lt;/span&gt;&lt;span style=&quot;color: rgb(0 , 0 , 0)&quot;&gt;SweetPizza &lt;/span&gt;&lt;span style=&quot;color: rgb(0 , 51 , 179)&quot;&gt;extends &lt;/span&gt;&lt;span style=&quot;color: rgb(0 , 0 , 0)&quot;&gt;Pizza &lt;/span&gt;{&lt;br&gt;   &lt;span style=&quot;color: rgb(0 , 51 , 179)&quot;&gt;public &lt;/span&gt;&lt;span style=&quot;color: rgb(0 , 98 , 122)&quot;&gt;SweetPizza&lt;/span&gt;() {&lt;br&gt;   }&lt;br&gt;}&lt;/pre&gt;&lt;/pre&gt;" style="whiteSpace=wrap;html=1;strokeColor=#6c8ebf;fillColor=#dae8fc;" vertex="1" parent="1">
          <mxGeometry x="500" y="2260" width="322.5" height="100" as="geometry" />
        </mxCell>
      </root>
    </mxGraphModel>
  </diagram>
  <diagram id="fRwZ3SBXk88bPWunZIEU" name="第 2 页">
    <mxGraphModel dx="1278" dy="568" grid="1" gridSize="10" guides="1" tooltips="1" connect="1" arrows="1" fold="1" page="1" pageScale="1" pageWidth="1169" pageHeight="1654" math="0" shadow="0">
      <root>
        <mxCell id="3OaJpzWTDMVUlv7An5dS-0" />
        <mxCell id="3OaJpzWTDMVUlv7An5dS-1" parent="3OaJpzWTDMVUlv7An5dS-0" />
      </root>
    </mxGraphModel>
  </diagram>
</mxfile>
